HIERARCHY
ROOT Hips
{
  OFFSET 263.056 91.6644 -274.608
  CHANNELS 6 Xposition Yposition Zposition Zrotation Xrotation Yrotation
  JOINT LeftUpLeg
  {
    OFFSET 8.64259 1.95398 -2.38835
    CHANNELS 3 Zrotation Xrotation Yrotation
    JOINT LeftLeg
    {
      OFFSET 43.7702 0 0
      CHANNELS 3 Zrotation Xrotation Yrotation
      JOINT LeftFoot
      {
        OFFSET 40.6238 0 0
        CHANNELS 3 Zrotation Xrotation Yrotation
        JOINT LeftToeBase
        {
          OFFSET 12.7242 0 0
          CHANNELS 3 Zrotation Xrotation Yrotation
          End Site
          {
            OFFSET 0 0 0
          }
        }
      }
    }
  }
  JOINT RightUpLeg
  {
    OFFSET -8.2249 1.95398 -2.59336
    CHANNELS 3 Zrotation Xrotation Yrotation
    JOINT RightLeg
    {
      OFFSET 43.5653 0 0
      CHANNELS 3 Zrotation Xrotation Yrotation
      JOINT RightFoot
      {
        OFFSET 40.6238 0 0
        CHANNELS 3 Zrotation Xrotation Yrotation
        JOINT RightToeBase
        {
          OFFSET 12.7242 0 0
          CHANNELS 3 Zrotation Xrotation Yrotation
          End Site
          {
            OFFSET 0 0 0
          }
        }
      }
    }
  }
  JOINT Spine
  {
    OFFSET 0.165834 0.87714 6.61349
    CHANNELS 3 Zrotation Xrotation Yrotation
    JOINT Spine1
    {
      OFFSET 7.38963 1.71661e-005 0
      CHANNELS 3 Zrotation Xrotation Yrotation
      JOINT Spine2
      {
        OFFSET 11.9445 1.14441e-005 0
        CHANNELS 3 Zrotation Xrotation Yrotation
        JOINT Spine3
        {
          OFFSET 14.7254 4.19617e-005 0
          CHANNELS 3 Zrotation Xrotation Yrotation
          JOINT Spine4
          {
            OFFSET 10.9679 0 0
            CHANNELS 3 Zrotation Xrotation Yrotation
            JOINT RightShoulder
            {
              OFFSET 2.46616 -1.6653 3.69651
              CHANNELS 3 Zrotation Xrotation Yrotation
              JOINT RightArm
              {
                OFFSET 13.0012 0 0
                CHANNELS 3 Zrotation Xrotation Yrotation
                JOINT RightForeArm
                {
                  OFFSET 28.7848 1.52588e-005 0
                  CHANNELS 3 Zrotation Xrotation Yrotation
                  JOINT RightHand
                  {
                    OFFSET 26.5688 1.52588e-005 0
                    CHANNELS 3 Zrotation Xrotation Yrotation
                    End Site
                    {
                      OFFSET 0 0 0
                    }
                  }
                }
              }
            }
            JOINT LeftShoulder
            {
              OFFSET 2.38034 -1.29275 -3.7523
              CHANNELS 3 Zrotation Xrotation Yrotation
              JOINT LeftArm
              {
                OFFSET 16.3182 6.10352e-005 0
                CHANNELS 3 Zrotation Xrotation Yrotation
                JOINT LeftForeArm
                {
                  OFFSET 27.0901 0 0
                  CHANNELS 3 Zrotation Xrotation Yrotation
                  JOINT LeftHand
                  {
                    OFFSET 24.5451 1.52588e-005 0
                    CHANNELS 3 Zrotation Xrotation Yrotation
                    End Site
                    {
                      OFFSET 0 0 0
                    }
                  }
                }
              }
            }
            JOINT Neck
            {
              OFFSET 5.0226 -0.0266342 0
              CHANNELS 3 Zrotation Xrotation Yrotation
              JOINT Head
              {
                OFFSET 6.69364 2.86102e-005 0
                CHANNELS 3 Zrotation Xrotation Yrotation
                End Site
                {
                  OFFSET 0 0 0
                }
              }
            }
          }
        }
      }
    }
  }
}
MOTION
Frames:	7
Frame Time:	0.0416667
-62.5109 96.6007 50.1668 112.794 -86.1584 109.652 -172.581 3.89375 95.6532 -8.32354 13.4776 2.49774 55.51 -1.1671 3.84359 36.54 8.35093 -8.49016 175.714 5.31362 88.8826 -18.5008 4.14403 0.988946 69.9985 -1.74479 -0.894063 27.3789 -0.851081 10.1162 -0.317651 7.10009 -91.0459 12.66 -1.13014 -1.95711 0.988141 -1.21517 -1.90551 -21.5362 -0.489863 -2.20617 -1.52359 -0.489875 -2.20618 79.0227 -52.9312 -116.154 16.8268 -11.1752 5.34818 -1.70859 -14.1838 -35.0214 -8.21663 -0.77179 5.37259 -105.546 -42.1735 52.369 -28.7934 17.1999 -2.30129 1.88952 12.0196 -32.4686 13.8393 1.25445 5.05236 10.2336 -1.45119 -7.31291 -3.96796 0.249481 -0.12579 
-62.6264 96.6026 50.0851 125.394 -86.8179 121.95 -172.574 3.40014 95.4606 -8.44239 12.5236 2.49978 55.4722 -1.06832 3.40007 36.8326 8.64402 -8.16978 175.666 5.32056 88.6278 -18.9795 3.29475 0.827406 70.3677 -1.83854 -0.93515 26.89 -0.946047 10.3736 -0.342711 7.14586 -91.0317 12.5684 -1.17251 -1.92483 0.896674 -1.25606 -1.87139 -21.6283 -0.539973 -2.1881 -1.61564 -0.539958 -2.18811 78.8624 -52.1009 -116.712 17.4017 -11.0703 5.41985 -1.9622 -14.5684 -35.171 -7.81809 -0.751887 5.55343 -105.241 -42.5784 53.0348 -29.1529 17.2935 -2.72955 1.82618 11.8776 -32.5166 13.9019 1.12645 4.12487 9.86142 -1.49063 -6.35052 -3.3969 -0.0290289 -1.87899 
-62.2478 96.5874 49.9345 128.032 -87.0625 124.958 -172.538 3.57714 95.6016 -8.56384 12.2298 2.51045 55.0909 -1.07168 3.61021 37.8327 9.52885 -9.48115 175.719 5.30652 88.7356 -18.6802 3.03261 0.847118 70.1027 -1.80293 -0.917471 27.2997 -0.887133 10.446 -0.351774 7.13552 -91.0301 12.589 -1.18984 -1.91926 0.917264 -1.27315 -1.86507 -21.6078 -0.558179 -2.18801 -1.59517 -0.558177 -2.18801 79.195 -52.4649 -116.09 17.1185 -11.3016 5.03066 -1.90983 -14.9319 -34.9746 -7.96761 -0.758769 5.4468 -105.169 -42.4204 53.063 -29.5233 17.2624 -2.66451 1.96898 11.8616 -32.772 13.3094 1.14295 4.60724 9.62256 -1.9839 -7.18728 -3.15309 -0.342064 -1.8415 
-61.525 96.6306 49.6627 128.604 -87.3465 125.959 -172.481 3.88523 95.6058 -8.59886 12.429 2.3674 54.5502 -1.10682 4.62637 38.3566 9.92274 -11.0745 175.958 5.41396 88.8259 -18.122 3.13368 0.633234 69.1693 -1.53983 -0.781544 27.9613 -0.805757 10.716 -0.359898 7.11449 -91.0561 12.6304 -1.21874 -1.96741 0.958624 -1.30412 -1.91189 -21.566 -0.571277 -2.24259 -1.5533 -0.571277 -2.2426 78.8327 -52.4941 -116.598 16.7752 -11.2143 5.48207 -1.43724 -14.1355 -35.0369 -8.15503 -0.770802 5.447 -105.095 -42.4389 53.1851 -29.7056 16.7996 -2.65297 2.60378 12.7074 -32.9068 11.3597 0.994543 4.60761 9.39519 -2.17146 -7.18341 -3.00095 -0.545271 -2.34169 
-60.4979 96.7212 49.3119 126.892 -87.5686 124.433 -172.518 4.17286 95.2152 -8.50867 11.8257 2.16249 54.5807 -1.05628 4.8042 38.6654 10.1228 -12.2864 175.939 5.39187 88.4366 -17.1468 2.70671 0.445786 68.365 -1.4606 -0.741915 28.4752 -0.68621 10.1328 -0.37679 7.11836 -91.0356 12.6229 -1.24245 -1.9239 0.9512 -1.3259 -1.86739 -21.574 -0.606958 -2.20824 -1.5614 -0.606958 -2.20824 79.0097 -52.5584 -116.319 16.4388 -11.177 5.06568 -1.6257 -14.6282 -34.6318 -8.04303 -0.769817 5.55023 -105.109 -42.5038 53.1968 -29.4925 17.3826 -2.81275 1.83439 11.9493 -32.5108 13.4787 1.08663 4.07046 9.8142 -2.13393 -7.21426 -3.47687 -0.464988 -2.1787 
-59.1927 96.8147 48.827 141.658 -87.494 139.128 -172.328 3.61572 94.5811 -8.28611 11.6758 1.64735 54.8595 -0.865618 5.30065 38.0582 9.59401 -12.0535 175.917 4.82246 87.7665 -16.2525 2.53927 -0.0643829 68.0675 -1.4968 -0.763484 28.0399 -0.79879 10.801 -0.37432 7.18627 -90.966 12.4886 -1.20338 -1.79091 0.817021 -1.28102 -1.73623 -21.7097 -0.609638 -2.06966 -1.69708 -0.609637 -2.06966 78.9483 -52.4752 -116.44 16.5018 -10.8663 5.25715 -1.91321 -14.5793 -34.9259 -7.99176 -0.752319 5.31879 -105.051 -42.4494 53.2564 -29.2207 16.8206 -2.82347 1.83225 11.5459 -32.3997 11.0943 1.11314 5.82016 9.30544 -2.04744 -6.9008 -2.96183 -0.492702 -2.38489 
-57.4923 96.8987 48.4158 136.263 -87.7602 134.229 -172.225 3.86494 94.1386 -8.03073 11.8329 1.21402 56.1249 0.246806 6.19658 36.6565 8.30332 -13.1236 175.886 4.98071 87.3163 -15.1314 2.44748 -0.259872 66.9153 -1.34827 -0.685496 28.8772 -0.642301 10.3658 -0.378133 7.16615 -90.9255 12.5297 -1.19198 -1.71073 0.858211 -1.2661 -1.65664 -21.6695 -0.622836 -1.98978 -1.6568 -0.622838 -1.98979 78.9063 -52.5381 -116.475 16.5978 -10.7326 5.09292 -1.7419 -14.4854 -34.4938 -8.19948 -0.787129 5.63536 -104.68 -42.4835 53.8356 -29.3306 17.0764 -3.09496 1.67167 12.2879 -31.5427 13.3714 1.1411 4.50533 9.41165 -1.69536 -6.50621 -3.13695 -0.226036 -2.32256 
